<svg viewBox="0 0 16 16" fill="currentColor" width="16" height="16" xmlns="http://www.w3.org/2000/svg" xmlns:xlink="http://www.w3.org/1999/xlink">
    <path d="M4 8.585h1.969c0.115 0.465 0.186 0.939 0.186 1.43 0 1.385-0.736 2.496-2.075 2.771V14H12v-1.24H6.492v-0.129c0.825-0.525 1.135-1.446 1.135-2.694 0-0.465-0.07-0.913-0.168-1.352h3.29V7.613H7.22C7.034 6.89 6.848 6.158 6.848 5.366c0-1.274 1.047-2.066 2.58-2.066a5.3 5.3 0 0 1 2.103 0.465V2.456A5.6 5.6 0 0 0 9.348 2C6.865 2 5.322 3.291 5.322 5.366c0 0.775 0.195 1.515 0.399 2.247H4z" />
</svg>