<svg viewBox="0 0 24 24" stroke-width="2" stroke="currentColor" stroke-linecap="round" stroke-linejoin="round" fill="none" width="24" height="24" xmlns="http://www.w3.org/2000/svg" xmlns:xlink="http://www.w3.org/1999/xlink">
    <path d="M10 5.172C10 3.782 8.423 2.679 6.5 3c-2.823 0.47-4.113 6.006-4 7 0.08 0.703 1.725 1.722 3.656 1 1.261-0.472 1.96-1.45 2.344-2.5" />
    <path d="M14.267 5.172c0-1.39 1.577-2.493 3.5-2.172 2.823 0.47 4.113 6.006 4 7-0.08 0.703-1.725 1.722-3.656 1-1.261-0.472-1.855-1.45-2.239-2.5" />
    <path d="M8 14v0.5" />
    <path d="M16 14v0.5" />
    <path d="M11.25 16.25h1.5L12 17z" />
    <path d="M4.42 11.247A13.152 13.152 0 0 0 4 14.556C4 18.728 7.582 21 12 21s8-2.272 8-6.444c0-1.061-0.162-2.2-0.493-3.309M10.264 5.165A8.801 8.801 0 0 1 12 5c0.78 0 1.5 0.108 2.161 0.306" />
</svg>