<svg viewBox="0 0 24 24" fill="currentColor" width="24" height="24" xmlns="http://www.w3.org/2000/svg" xmlns:xlink="http://www.w3.org/1999/xlink">
    <path d="M5.553 19.105l0.764 1.843C7.498 20.555 9.422 20 10 20c0.838 0 1.462 0.208 2.184 0.448C12.959 20.707 13.838 21 15 21c1.177 0 3.078-0.921 3.447-1.105l-0.895-1.789C16.831 18.466 15.521 19 15 19c-0.838 0-1.462-0.208-2.184-0.448C12.041 18.293 11.162 18 10 18c-0.229 0-0.526 0.037-0.857 0.099C9.702 16.95 10 15.561 10 14h3v-2H9.626c-0.042-0.107-0.084-0.216-0.125-0.317C9.243 11.052 9 10.455 9 9c0-1.369 0.521-3 3-3 2.224 0 3.021 2.227 3.052 2.316l1.896-0.633C16.898 7.533 15.679 4 12 4 8.313 4 7 6.583 7 9c0 1.491 0.234 2.35 0.478 3H5v2h3c0 2.467-0.892 4.328-2.447 5.105z" />
</svg>