<svg viewBox="0 0 24 24" fill="currentColor" width="24" height="24" xmlns="http://www.w3.org/2000/svg" xmlns:xlink="http://www.w3.org/1999/xlink">
    <path d="M23.588 19.96c-1.459-3.359-4.841-5.31-7.296-6.144 1.504-1.229 2.392-3.547 2.392-6.583 0-4.035-3.373-5.102-5.157-5.102-0.287 0-0.617 0.032-0.965 0.095C11.604 1.365 10.337 1 9.329 1 7.465 1 4.692 2.222 4.692 5.587c0 2.678 0.782 4.729 2.109 5.833-2.088 0.546-4.932 1.894-6.389 5.249L0 17.618l0.963 0.38c0.086 0.034 1.27 0.488 3.062 0.889-0.205 0.348-0.398 0.699-0.561 1.073l-0.413 0.949 0.963 0.38C4.192 21.358 8.415 23 13.526 23s9.334-1.642 9.512-1.711L24 20.909zM16.684 7.234c0 3.431-1.21 5.562-3.157 5.562s-3.157-2.131-3.157-5.562c0-2.92 2.635-3.096 3.152-3.102 0.527 6e-3 3.162 0.182 3.162 3.102zM9.329 3C9.43 3 9.83 3.017 10.287 3.165 9.217 3.935 8.37 5.211 8.37 7.234c0 1.099 0.119 2.102 0.338 2.996-1.472-0.469-2.016-2.615-2.016-4.643 0-2.431 2.202-2.582 2.637-2.587zM9.329 13.046c0.012 0 0.29 6e-3 0.726 0.062 0.436 0.538 0.949 0.954 1.527 1.239-1.574 0.315-3.816 1.067-5.634 2.865-1.31-0.211-2.432-0.494-3.185-0.72 2.147-3.38 6.374-3.445 6.566-3.446zM13.526 21c-3.276 0-6.567-0.75-8.071-1.214 0.237-0.687 0.986-1.595 1.246-1.907 2.793-2.705 6.784-2.762 6.822-2.762 8e-3 0 0.729 0.011 1.755 0.216 1.782 0.45 4.55 2.095 5.974 4.451C19.749 20.248 16.807 21 13.526 21z" />
</svg>